<svg xmlns="http://www.w3.org/2000/svg" xmlns:xlink="http://www.w3.org/1999/xlink" viewBox="0 0 1920 1080"><defs><style>.a{fill:none;}.b{clip-path:url(#a);}.c{fill:#39393a;}.d{fill:url(#b);}.e{fill:url(#c);}.f{fill:#3fa9f5;}.g{fill:url(#d);}.h{fill:url(#e);}.i{fill:#f0f;}.j{fill:url(#f);}.k{fill:#1ef9aa;}.l{fill:url(#g);}.m{fill:#e2ffa4;}.n{fill:url(#h);}.o{fill:url(#i);}.p{fill:url(#j);}.q{fill:url(#k);}.r{fill:url(#l);}.s{fill:url(#m);}.t{fill:url(#n);}.u{fill:url(#o);}.v{fill:url(#p);}.w{fill:url(#q);}.x{fill:url(#r);}.y{fill:url(#s);}</style><clipPath id="a"><rect class="a" width="1920" height="1080"/></clipPath><linearGradient id="b" x1="-349.59" y1="-721.31" x2="156.66" y2="-721.31" gradientTransform="matrix(-0.97, 0.56, -0.39, -0.67, 235.12, -127.17)" gradientUnits="userSpaceOnUse"><stop offset="0" stop-color="#f0f"/><stop offset="1" stop-color="#ed1e79"/></linearGradient><linearGradient id="c" x1="-188.96" y1="-670.31" x2="318.04" y2="-670.31" gradientTransform="translate(492.5 -47.8) rotate(180) scale(1.12 0.57)" gradientUnits="userSpaceOnUse"><stop offset="0" stop-color="#f0f"/><stop offset="1" stop-color="#3fa9f5"/></linearGradient><linearGradient id="d" x1="-83.96" y1="-619.31" x2="423.04" y2="-619.31" gradientTransform="translate(480.6 -111.3) rotate(180) scale(1.12 0.74)" gradientUnits="userSpaceOnUse"><stop offset="0" stop-color="#f15a24"/><stop offset="1" stop-color="#efa256"/></linearGradient><linearGradient id="e" x1="-303.96" y1="-567.31" x2="235.04" y2="-567.31" gradientTransform="translate(419.8 -201.8) rotate(180) scale(1.12 0.67)" gradientUnits="userSpaceOnUse"><stop offset="0" stop-color="#ed29c8"/><stop offset="1" stop-color="#f0f"/></linearGradient><linearGradient id="f" x1="-188.96" y1="-515.31" x2="318.04" y2="-515.31" gradientTransform="translate(404.3 -108.5) rotate(180) scale(1.12 0.57)" gradientUnits="userSpaceOnUse"><stop offset="0" stop-color="#1590ff"/><stop offset="1" stop-color="#00ffbc"/></linearGradient><linearGradient id="g" x1="184.04" y1="-463.31" x2="691.04" y2="-463.31" gradientTransform="translate(431.8 25.3) rotate(180) scale(1.12 0.69)" gradientUnits="userSpaceOnUse"><stop offset="0" stop-color="#e2ffa4"/><stop offset="1" stop-color="#00ffbc"/></linearGradient><linearGradient id="h" x1="-266.96" y1="-411.31" x2="691.04" y2="-411.31" gradientTransform="translate(367.3 -68.7) rotate(180) scale(1.12 0.57)" gradientUnits="userSpaceOnUse"><stop offset="0" stop-color="#fceeb4"/><stop offset="1" stop-color="#ffb600"/></linearGradient><linearGradient id="i" x1="-115.96" y1="-359.31" x2="423.04" y2="-359.31" gradientTransform="translate(329.8 -166.6) rotate(180) scale(1.12 0.69)" gradientUnits="userSpaceOnUse"><stop offset="0" stop-color="#ff8415"/><stop offset="1" stop-color="#ff5b00"/></linearGradient><linearGradient id="j" x1="-56.96" y1="-307.31" x2="482.04" y2="-307.31" gradientTransform="translate(309.1 -147) rotate(180) scale(1.12 0.69)" gradientUnits="userSpaceOnUse"><stop offset="0" stop-color="#ff17d3"/><stop offset="1" stop-color="#ff4800"/></linearGradient><linearGradient id="k" x1="961.42" y1="1240.05" x2="1468.42" y2="1240.05" gradientTransform="translate(-149.8 -54.9) scale(1.18 0.69)" xlink:href="#b"/><linearGradient id="l" x1="1122.42" y1="1291.05" x2="1629.42" y2="1291.05" gradientTransform="translate(-147.5 -136.4) scale(1.18 0.69)" xlink:href="#c"/><linearGradient id="m" x1="1227.42" y1="1342.05" x2="1734.42" y2="1342.05" gradientTransform="translate(-136.5 -185.3) scale(1.18 0.69)" xlink:href="#d"/><linearGradient id="n" x1="1007.42" y1="1394.05" x2="1546.42" y2="1394.05" gradientTransform="translate(-77.2 -53.7) scale(1.18 0.69)" xlink:href="#e"/><linearGradient id="o" x1="1122.59" y1="1446.05" x2="1629.26" y2="1446.05" gradientTransform="matrix(1.03, -0.58, 0.36, 0.63, -371.51, 796.67)" xlink:href="#f"/><linearGradient id="p" x1="1497.38" y1="1498.05" x2="2000.47" y2="1498.05" gradientTransform="matrix(1.03, -0.58, 0.4, 0.71, -429.9, 694.07)" xlink:href="#g"/><linearGradient id="q" x1="1044.42" y1="1550.05" x2="2002.42" y2="1550.05" gradientTransform="translate(-32.1 -184.4) scale(1.18 0.71)" xlink:href="#h"/><linearGradient id="r" x1="1195.42" y1="1602.05" x2="1734.42" y2="1602.05" gradientTransform="translate(4.4 -199.1) scale(1.18 0.75)" xlink:href="#i"/><linearGradient id="s" x1="1254.42" y1="1654.05" x2="1793.42" y2="1654.05" gradientTransform="translate(23.4 -134.7) scale(1.18 0.69)" xlink:href="#j"/></defs><title>portfolio-background-named1-black</title><g class="b"><rect class="c" x="0.5" y="0.5" width="1919" height="1079"/><path d="M1919,1V1079H1V1H1919m1-1H0V1080H1920V0Z"/><path class="d" d="M362.3,426,838.9,150.9c3.8-2.1,8-1.9,9.5.7l6.6,11.3c1.5,2.5-.3,6.3-4.1,8.5L374.2,446.5c-3.7,2.1-8,1.8-9.5-.7l-6.6-11.3C356.6,432,358.5,428.1,362.3,426Z"/><rect class="e" x="136.9" y="327.5" width="567" height="17.77" rx="7.9" transform="matrix(0.87, -0.5, 0.5, 0.87, -112.02, 256.11)"/><rect class="f" x="116" y="495.8" width="28.8" height="20.36" rx="7.9" transform="translate(-236.1 133.6) rotate(-30.1)"/><rect class="g" x="7.6" y="336" width="567" height="22.96" rx="7.9" transform="matrix(0.87, -0.5, 0.5, 0.87, -134.98, 192.75)"/><rect class="h" x="156.9" y="170.6" width="602.7" height="20.92" rx="7.9" transform="translate(-29 254.2) rotate(-30.1)"/><rect class="i" x="76.4" y="358.2" width="116.3" height="20.58" rx="7.9" transform="translate(-166.6 117.1) rotate(-30.1)"/><rect class="i" x="47.8" y="402.3" width="22" height="22.73" rx="7.9" transform="translate(-199.5 85.2) rotate(-30.1)"/><rect class="j" x="48.6" y="175.3" width="567" height="17.6" rx="7.9" transform="translate(-47.5 191.3) rotate(-30.1)"/><rect class="k" x="-36.2" y="355.3" width="116.3" height="21.42" rx="7.9" transform="translate(-180.6 60.4) rotate(-30.1)"/><rect class="l" x="-341" y="333.1" width="567" height="21.31" rx="7.9" transform="translate(-180.1 17.5) rotate(-30.1)"/><rect class="m" x="206.4" y="146.6" width="116.3" height="22.46" rx="7.9" transform="translate(-43.5 153.9) rotate(-30.1)"/><rect class="n" x="-405.5" y="155.8" width="1071.3" height="17.58" rx="7.9" transform="translate(-65 87.5) rotate(-30.1)"/><rect class="o" x="-143.2" y="71.7" width="602.7" height="21.49" rx="7.9" transform="translate(-20 90.4) rotate(-30.1)"/><rect class="p" x="-229.9" y="53.7" width="602.7" height="21.33" rx="7.9" transform="translate(-22.7 44.5) rotate(-30.1)"/><rect class="q" x="984.6" y="796.1" width="598.2" height="21.54" rx="10.8" transform="translate(-231.1 740.5) rotate(-29.6)"/><rect class="r" x="1176.9" y="750" width="598.2" height="21.54" rx="10.8" transform="translate(-183.1 829.6) rotate(-29.6)"/><rect class="f" x="1765.7" y="562.7" width="33.7" height="33.45" rx="16.7" transform="translate(-50.9 968.9) rotate(-30)"/><rect class="s" x="1311.8" y="736.5" width="598.2" height="21.54" rx="10.8" transform="translate(-158.8 894.6) rotate(-29.6)"/><rect class="t" x="1111.5" y="904.3" width="636" height="21.54" rx="10.8" transform="translate(-265.5 826.8) rotate(-29.6)"/><rect class="i" x="1711.1" y="709.1" width="122.7" height="21.54" rx="10.8" transform="translate(-124.1 970.9) rotate(-29.6)"/><rect class="i" x="1839.9" y="656.3" width="40.1" height="24.36" rx="12.2" transform="translate(-87.2 1007.5) rotate(-29.6)"/><path class="u" d="M1814.7,773.2l-501.2,284.5a10.8,10.8,0,0,1-14.7-4.1l-.5-.8a10.8,10.8,0,0,1,4-14.6l501.2-284.5a10.9,10.9,0,0,1,14.7,4l.5.8A10.9,10.9,0,0,1,1814.7,773.2Z"/><rect class="k" x="1826.2" y="704.4" width="122.7" height="25.03" rx="10.8" transform="translate(-107.6 1027.5) rotate(-29.6)"/><path class="v" d="M2224.9,608.1,1724.7,885.7c-5.1,2.9-11.2,2.1-13.4-1.6l-4.5-7.6c-2.2-3.7.1-9.1,5.3-12l500.2-277.6c5.1-2.9,11.2-2.1,13.4,1.6l4.5,7.6C2232.4,599.8,2230.1,605.2,2224.9,608.1Z"/><rect class="m" x="1563.7" y="909.3" width="122.7" height="33.45" rx="10.8" transform="translate(-245.3 925) rotate(-29.6)"/><rect class="w" x="1200.2" y="906.3" width="1130.4" height="22.03" rx="10.8" transform="translate(-222.7 993.2) rotate(-29.6)"/><rect class="x" x="1414.9" y="988.1" width="636" height="23.2" rx="10.8" transform="translate(-267.7 987.9) rotate(-29.6)"/><rect class="y" x="1503.5" y="1004" width="636" height="21.54" rx="10.8" transform="translate(-263.5 1033.8) rotate(-29.6)"/></g></svg>