<svg xmlns="http://www.w3.org/2000/svg" xmlns:xlink="http://www.w3.org/1999/xlink" viewBox="0 0 1920 1080"><defs><style>.a{fill:#3d1689;}.b{fill:url(#a);}.c{fill:url(#b);}.d{fill:#3fa9f5;}.e{fill:url(#c);}.f{fill:url(#d);}.g{fill:#f0f;}.h{fill:url(#e);}.i{fill:#1ef9aa;}.j{fill:url(#f);}.k{fill:#e2ffa4;}.l{fill:url(#g);}.m{fill:url(#h);}.n{fill:url(#i);}.o{fill:url(#j);}.p{fill:url(#k);}.q{fill:url(#l);}.r{fill:url(#m);}.s{fill:url(#n);}.t{fill:url(#o);}.u{fill:url(#p);}.v{fill:none;}</style><linearGradient id="a" x1="-638.43" y1="-607.32" x2="-131.43" y2="-607.32" gradientTransform="translate(156 -424.8) rotate(180) scale(0.68 1.14)" gradientUnits="userSpaceOnUse"><stop offset="0" stop-color="#f0f"/><stop offset="1" stop-color="#ed1e79"/></linearGradient><linearGradient id="b" x1="-477.43" y1="-556.32" x2="29.57" y2="-556.32" gradientTransform="translate(141.8 -361.9) rotate(180) scale(0.68 1.14)" gradientUnits="userSpaceOnUse"><stop offset="0" stop-color="#f0f"/><stop offset="1" stop-color="#3fa9f5"/></linearGradient><linearGradient id="c" x1="-372.43" y1="-505.32" x2="134.57" y2="-505.32" gradientTransform="translate(122.5 -318.1) rotate(180) scale(0.68 1.14)" gradientUnits="userSpaceOnUse"><stop offset="0" stop-color="#f15a24"/><stop offset="1" stop-color="#efa256"/></linearGradient><linearGradient id="d" x1="-592.35" y1="-454.08" x2="-53.35" y2="-454.08" gradientTransform="translate(74.5 -380.2) rotate(180) scale(0.68 1.14)" gradientUnits="userSpaceOnUse"><stop offset="0" stop-color="#ed29c8"/><stop offset="1" stop-color="#f0f"/></linearGradient><linearGradient id="e" x1="-477.43" y1="-401.32" x2="29.57" y2="-401.32" gradientTransform="translate(53.6 -338.2) rotate(180) scale(0.68 1.14)" gradientUnits="userSpaceOnUse"><stop offset="0" stop-color="#1590ff"/><stop offset="1" stop-color="#00ffbc"/></linearGradient><linearGradient id="f" x1="-104.43" y1="-349.32" x2="402.57" y2="-349.32" gradientTransform="translate(90.9 -261.6) rotate(180) scale(0.22 1.14)" gradientUnits="userSpaceOnUse"><stop offset="0" stop-color="#e2ffa4"/><stop offset="1" stop-color="#00ffbc"/></linearGradient><linearGradient id="g" x1="-555.43" y1="-297.32" x2="402.57" y2="-297.32" gradientTransform="translate(64.5 -281) rotate(180) scale(0.15 1.14)" gradientUnits="userSpaceOnUse"><stop offset="0" stop-color="#fceeb4"/><stop offset="1" stop-color="#ffb600"/></linearGradient><linearGradient id="h" x1="-404.43" y1="-245.32" x2="134.57" y2="-245.32" gradientTransform="translate(14.3 -257.5) rotate(180) scale(0.04 1.14)" gradientUnits="userSpaceOnUse"><stop offset="0" stop-color="#ff8415"/><stop offset="1" stop-color="#ff5b00"/></linearGradient><linearGradient id="i" x1="1096.68" y1="1389.44" x2="1603.68" y2="1389.44" gradientTransform="translate(482.8 -619.2) scale(0.73 1.08)" xlink:href="#a"/><linearGradient id="j" x1="1257.68" y1="1440.44" x2="1764.68" y2="1440.44" gradientTransform="translate(494.6 -684.6) scale(0.73 1.08)" xlink:href="#b"/><linearGradient id="k" x1="1362.68" y1="1491.44" x2="1869.68" y2="1491.44" gradientTransform="translate(511.8 -729.7) scale(0.73 1.08)" xlink:href="#c"/><linearGradient id="l" x1="1142.68" y1="1543.44" x2="1681.68" y2="1543.44" gradientTransform="translate(779.9 -681.3) scale(0.6 1.08)" xlink:href="#d"/><linearGradient id="m" x1="1257.68" y1="1595.44" x2="1764.68" y2="1595.44" gradientTransform="translate(880.3 -728.4) scale(0.56 1.08)" xlink:href="#e"/><linearGradient id="n" x1="1630.68" y1="1647.44" x2="2137.68" y2="1647.44" gradientTransform="translate(1307.7 -793) scale(0.29 1.08)" xlink:href="#f"/><linearGradient id="o" x1="1210.57" y1="1696.42" x2="2168.57" y2="1696.42" gradientTransform="translate(1669 -792.2) scale(0.11 1.08)" xlink:href="#g"/><linearGradient id="p" x1="1342.34" y1="1735.7" x2="1881.34" y2="1735.7" gradientTransform="translate(1838.6 -809.9) scale(0.04 1.08)" xlink:href="#h"/></defs><title>portfolio-background-4</title><rect class="a" x="0.5" y="0.5" width="1919" height="1079"/><path d="M1919,1V1079H1V1H1919m1-1H0V1080H1920V0Z"/><rect class="b" x="245.8" y="247.1" width="346.3" height="35.19" rx="17.6" transform="translate(-76.2 245.7) rotate(-30.1)"/><rect class="c" x="121.6" y="252.1" width="346.3" height="35.19" rx="17.6" transform="translate(-95.5 184.1) rotate(-30.1)"/><rect class="d" x="103.2" y="356.4" width="23.2" height="35.19" rx="11.6" transform="translate(-172 108) rotate(-30.1)"/><rect class="e" x="30.6" y="238" width="346.3" height="35.19" rx="17.6" transform="translate(-100.7 136.6) rotate(-30.1)"/><rect class="f" x="110.9" y="117.7" width="368.4" height="35.19" rx="17.6" transform="translate(-28.1 166.2) rotate(-30.1)"/><rect class="g" x="61.5" y="231.6" width="71" height="35.19" rx="7.9" transform="translate(-111.9 82.2) rotate(-30.1)"/><rect class="g" x="34.5" y="261" width="23.2" height="35.19" rx="7.9" transform="translate(-133.5 60.7) rotate(-30.1)"/><rect class="h" x="33.4" y="99.9" width="346.3" height="35.19" rx="17.6" transform="translate(-31.1 119.4) rotate(-30.1)"/><rect class="i" x="14.5" y="201" width="35.2" height="35.19" rx="17.6" transform="translate(-105.3 45.5) rotate(-30.1)"/><rect class="j" x="3.5" y="117.4" width="110.2" height="35.19" rx="17.6" transform="translate(-59.8 47.5) rotate(-30.1)"/><rect class="k" x="111.5" y="40.4" width="159.1" height="35.33" rx="17.7" transform="translate(-3.4 103.6) rotate(-30.1)"/><rect class="l" x="3.3" y="39" width="145.7" height="35.19" rx="17.6" transform="translate(-18.1 45.8) rotate(-30.1)"/><rect class="m" x="8.7" y="3.4" width="22.2" height="35.19" rx="11.1" transform="translate(-7.8 12.8) rotate(-30.1)"/><rect class="n" x="1283.9" y="863.3" width="370.3" height="33.45" rx="10.8" transform="translate(-243 841.8) rotate(-29.6)"/><rect class="o" x="1413.3" y="852.9" width="370.3" height="33.45" rx="10.8" transform="translate(-220.9 904.4) rotate(-29.6)"/><rect class="d" x="1779.3" y="742.9" width="24.8" height="33.45" rx="10.8" transform="translate(-141.2 985.7) rotate(-29.6)"/><rect class="p" x="1507.2" y="862.8" width="370.3" height="33.45" rx="10.8" transform="matrix(0.87, -0.49, 0.49, 0.87, -213.54, 952.17)"/><rect class="q" x="1461.3" y="967.4" width="321.4" height="33.45" rx="10.8" transform="translate(-274.5 931.1) rotate(-29.6)"/><rect class="g" x="1764.9" y="864.5" width="76" height="33.45" rx="10.8" transform="translate(-199.9 1007.1) rotate(-29.6)"/><rect class="g" x="1845.1" y="833.4" width="24.8" height="33.45" rx="10.8" transform="translate(-177.4 1030) rotate(-29.6)"/><rect class="r" x="1578.9" y="976.4" width="281.6" height="33.45" rx="10.8" transform="translate(-266.1 980.6) rotate(-29.6)"/><rect class="i" x="1847.8" y="884" width="68.3" height="33.45" rx="10.8" transform="translate(-199.2 1048.7) rotate(-29.6)"/><rect class="s" x="1775.3" y="967.9" width="145.4" height="33.45" rx="10.8" transform="translate(-245.2 1042.9) rotate(-29.6)"/><rect class="k" x="1702.2" y="1030.2" width="76" height="33.45" rx="10.8" transform="translate(-290 997.7) rotate(-29.6)"/><rect class="t" x="1806.2" y="1021.6" width="108.6" height="33.45" rx="10.8" transform="translate(-270 1056.2) rotate(-29.6)"/><rect class="u" x="1892.2" y="1046.2" width="21.5" height="33.45" rx="10.8" transform="translate(-276.7 1080.4) rotate(-29.6)"/><rect class="v" x="1" width="1919" height="1080"/></svg>