<svg xmlns="http://www.w3.org/2000/svg" xmlns:xlink="http://www.w3.org/1999/xlink" viewBox="0 0 2592.9 1449.9"><defs><style>.a{fill:none;}.b{clip-path:url(#a);}.c{fill:#3d1689;}.d{fill:url(#b);}.e{fill:url(#c);}.f{fill:#3fa9f5;}.g{fill:url(#d);}.h{fill:url(#e);}.i{fill:#f0f;}.j{fill:url(#f);}.k{fill:#1ef9aa;}.l{fill:url(#g);}.m{fill:#e2ffa4;}.n{fill:url(#h);}.o{fill:url(#i);}.p{fill:#ff8415;}.q{fill:url(#j);}.r{fill:#ff6a17;}.s{fill:#d32316;}.t{fill:url(#k);}.u{fill:url(#l);}.v{fill:url(#m);}.w{fill:url(#n);}.x{fill:url(#o);}.y{fill:url(#p);}.z{fill:url(#q);}.aa{fill:url(#r);}.ab{fill:url(#s);}</style><clipPath id="a" transform="translate(334.8 178.8)"><rect class="a" width="1920" height="1080"/></clipPath><linearGradient id="b" x1="-349.96" y1="-721.31" x2="157.04" y2="-721.31" gradientTransform="translate(501.7 -515.1) rotate(180) scale(1.12 1.14)" gradientUnits="userSpaceOnUse"><stop offset="0" stop-color="#f0f"/><stop offset="1" stop-color="#ed1e79"/></linearGradient><linearGradient id="c" x1="-188.96" y1="-670.31" x2="318.04" y2="-670.31" gradientTransform="translate(496.9 -417) rotate(180) scale(1.12 1.14)" gradientUnits="userSpaceOnUse"><stop offset="0" stop-color="#f0f"/><stop offset="1" stop-color="#3fa9f5"/></linearGradient><linearGradient id="d" x1="-83.96" y1="-619.31" x2="423.04" y2="-619.31" gradientTransform="translate(483.7 -350.4) rotate(180) scale(1.12 1.14)" gradientUnits="userSpaceOnUse"><stop offset="0" stop-color="#f15a24"/><stop offset="1" stop-color="#efa256"/></linearGradient><linearGradient id="e" x1="-303.96" y1="-567.31" x2="235.04" y2="-567.31" gradientTransform="translate(423.3 -456.8) rotate(180) scale(1.12 1.14)" gradientUnits="userSpaceOnUse"><stop offset="0" stop-color="#ed29c8"/><stop offset="1" stop-color="#f0f"/></linearGradient><linearGradient id="f" x1="-188.96" y1="-515.31" x2="318.04" y2="-515.31" gradientTransform="translate(408.7 -393.3) rotate(180) scale(1.12 1.14)" gradientUnits="userSpaceOnUse"><stop offset="0" stop-color="#1590ff"/><stop offset="1" stop-color="#00ffbc"/></linearGradient><linearGradient id="g" x1="184.04" y1="-463.31" x2="691.04" y2="-463.31" gradientTransform="translate(435.3 -176.2) rotate(180) scale(1.12 1.14)" gradientUnits="userSpaceOnUse"><stop offset="0" stop-color="#e2ffa4"/><stop offset="1" stop-color="#00ffbc"/></linearGradient><linearGradient id="h" x1="-266.96" y1="-411.31" x2="691.04" y2="-411.31" gradientTransform="translate(371.7 -294.7) rotate(180) scale(1.12 1.14)" gradientUnits="userSpaceOnUse"><stop offset="0" stop-color="#fceeb4"/><stop offset="1" stop-color="#ffb600"/></linearGradient><linearGradient id="i" x1="-115.96" y1="-359.31" x2="423.04" y2="-359.31" gradientTransform="translate(333.3 -319.5) rotate(180) scale(1.12 1.14)" gradientUnits="userSpaceOnUse"><stop offset="0" stop-color="#ff8415"/><stop offset="1" stop-color="#ff5b00"/></linearGradient><linearGradient id="j" x1="-56.96" y1="-307.31" x2="482.04" y2="-307.31" gradientTransform="translate(312.6 -278.5) rotate(180) scale(1.12 1.14)" gradientUnits="userSpaceOnUse"><stop offset="0" stop-color="#ff17d3"/><stop offset="1" stop-color="#ff4800"/></linearGradient><linearGradient id="k" x1="961.42" y1="1240.05" x2="1468.42" y2="1240.05" gradientTransform="translate(-152.8 -536.4) scale(1.18 1.08)" xlink:href="#b"/><linearGradient id="l" x1="1122.42" y1="1291.05" x2="1629.42" y2="1291.05" gradientTransform="translate(-150.4 -637.5) scale(1.18 1.08)" xlink:href="#c"/><linearGradient id="m" x1="1227.42" y1="1342.05" x2="1734.42" y2="1342.05" gradientTransform="translate(-139.4 -706) scale(1.18 1.08)" xlink:href="#d"/><linearGradient id="n" x1="1007.42" y1="1394.05" x2="1546.42" y2="1394.05" gradientTransform="translate(-80.2 -594.3) scale(1.18 1.08)" xlink:href="#e"/><linearGradient id="o" x1="1122.42" y1="1446.05" x2="1629.42" y2="1446.05" gradientTransform="translate(-67.7 -659.4) scale(1.18 1.08)" xlink:href="#f"/><linearGradient id="p" x1="1495.42" y1="1498.05" x2="2002.42" y2="1498.05" gradientTransform="translate(-97.5 -884.4) scale(1.18 1.08)" xlink:href="#g"/><linearGradient id="q" x1="1044.42" y1="1550.05" x2="2002.42" y2="1550.05" gradientTransform="translate(-35 -760.2) scale(1.18 1.08)" xlink:href="#h"/><linearGradient id="r" x1="1195.42" y1="1602.05" x2="1734.42" y2="1602.05" gradientTransform="translate(1.8 -733.4) scale(1.18 1.08)" xlink:href="#i"/><linearGradient id="s" x1="1254.42" y1="1654.05" x2="1793.42" y2="1654.05" gradientTransform="translate(20.5 -775.2) scale(1.18 1.08)" xlink:href="#j"/></defs><title>portfolio-background-1</title><g class="b"><rect class="c" x="335.3" y="179.3" width="1919" height="1079"/><path d="M1919,1V1079H1V1H1919m1-1H0V1080H1920V0Z" transform="translate(334.8 178.8)"/><rect class="d" x="326.1" y="286.2" width="567" height="35.19" rx="7.9" transform="translate(264.6 525.3) rotate(-30.1)"/><rect class="e" x="141.2" y="326.4" width="567" height="35.19" rx="7.9" transform="translate(219.6 438.1) rotate(-30.1)"/><rect class="f" x="111.1" y="497.1" width="38" height="35.19" rx="7.9" transform="translate(94.3 313.4) rotate(-30.1)"/><rect class="g" x="10.6" y="335.1" width="567" height="35.19" rx="7.9" transform="matrix(0.87, -0.5, 0.5, 0.87, 197.58, 373.79)"/><rect class="h" x="160.5" y="169.7" width="602.7" height="35.19" rx="7.9" transform="translate(303.1 435.6) rotate(-30.1)"/><rect class="i" x="80.1" y="357.2" width="116.3" height="35.19" rx="7.9" transform="translate(165.5 298.6) rotate(-30.1)"/><rect class="i" x="36" y="405.5" width="38" height="35.19" rx="7.9" transform="translate(130.1 263.4) rotate(-30.1)"/><rect class="j" x="53" y="174.1" width="567" height="35.19" rx="7.9" transform="matrix(0.87, -0.5, 0.5, 0.87, 284.03, 373.34)"/><rect class="k" x="-32.7" y="354.4" width="116.3" height="35.19" rx="7.9" transform="translate(151.7 241.7) rotate(-30.1)"/><rect class="l" x="-337.5" y="332.2" width="567" height="35.19" rx="7.9" transform="translate(152.1 198.9) rotate(-30.1)"/><rect class="m" x="209.6" y="145.7" width="116.3" height="35.19" rx="7.9" transform="translate(289 335) rotate(-30.1)"/><rect class="n" x="-401.1" y="154.7" width="1071.3" height="35.19" rx="7.9" transform="translate(266.6 269.5) rotate(-30.1)"/><rect class="o" x="-139.8" y="70.8" width="602.7" height="35.19" rx="7.9" transform="translate(312.3 271.7) rotate(-30.1)"/><rect class="p" x="434.8" y="-121.3" width="116.3" height="35.19" rx="7.9" transform="translate(453.2 412) rotate(-30.1)"/><rect class="p" x="565.9" y="-174.5" width="38" height="35.19" rx="7.9" transform="translate(492.3 450.9) rotate(-30.1)"/><rect class="q" x="-226.5" y="52.8" width="602.7" height="35.19" rx="7.9" transform="translate(309.6 225.8) rotate(-30.1)"/><rect class="r" x="-234.7" y="266.7" width="116.3" height="35.19" rx="7.9" transform="translate(168.4 128.6) rotate(-30.1)"/><rect class="s" x="-259" y="235.3" width="38" height="35.19" rx="7.9" transform="translate(175.7 92.5) rotate(-30.1)"/><rect class="t" x="981.6" y="785" width="598.2" height="33.45" rx="10.8" transform="translate(105.9 917.2) rotate(-29.6)"/><rect class="u" x="1174" y="738.8" width="598.2" height="33.45" rx="10.8" transform="translate(153.9 1006.3) rotate(-29.6)"/><rect class="f" x="1765.3" y="561.1" width="40.1" height="33.45" rx="10.8" transform="translate(282.7 1137.5) rotate(-29.6)"/><rect class="v" x="1308.9" y="725.4" width="598.2" height="33.45" rx="10.8" transform="translate(178.2 1071.2) rotate(-29.6)"/><rect class="w" x="1108.5" y="893.2" width="636" height="33.45" rx="10.8" transform="translate(71.4 1003.5) rotate(-29.6)"/><rect class="i" x="1708.2" y="698" width="122.7" height="33.45" rx="10.8" transform="translate(212.9 1147.6) rotate(-29.6)"/><rect class="i" x="1837.7" y="647.8" width="40.1" height="33.45" rx="10.8" transform="translate(249.3 1184.6) rotate(-29.6)"/><rect class="x" x="1256.7" y="884.2" width="598.2" height="33.45" rx="10.8" transform="translate(92.8 1066.2) rotate(-29.6)"/><rect class="k" x="1824.1" y="696.6" width="122.7" height="33.45" rx="10.8" transform="translate(228.8 1204.7) rotate(-29.6)"/><rect class="y" x="1666.9" y="715.3" width="598.2" height="33.45" rx="10.8" transform="translate(230.1 1247) rotate(-29.6)"/><rect class="m" x="1563.7" y="909.3" width="122.7" height="33.45" rx="10.8" transform="translate(89.5 1103.8) rotate(-29.6)"/><rect class="z" x="1197.4" y="895.6" width="1130.4" height="33.45" rx="10.8" transform="translate(114.2 1170) rotate(-29.6)"/><rect class="aa" x="1412.3" y="978.5" width="636" height="33.45" rx="10.8" transform="translate(69 1164.9) rotate(-29.6)"/><rect class="p" x="1317.7" y="1178.4" width="122.7" height="33.45" rx="10.8" transform="translate(-75.8 1017.3) rotate(-29.6)"/><rect class="p" x="1261.6" y="1233.9" width="40.1" height="33.45" rx="10.8" transform="translate(-116 976.4) rotate(-29.6)"/><rect class="ab" x="1500.6" y="992.9" width="636" height="33.45" rx="10.8" transform="translate(73.5 1210.4) rotate(-29.6)"/><rect class="r" x="2027.4" y="774.6" width="122.7" height="33.45" rx="10.8" transform="translate(216.8 1315.5) rotate(-29.6)"/><rect class="s" x="2132.3" y="802.9" width="40.1" height="33.45" rx="10.8" transform="translate(211.1 1350.7) rotate(-29.6)"/></g></svg>