<svg xmlns="http://www.w3.org/2000/svg" xmlns:xlink="http://www.w3.org/1999/xlink" viewBox="0 0 1920 1080"><defs><style>.a{fill:none;}.b{clip-path:url(#a);}.c{fill:url(#b);}.d{fill:url(#c);}.e{fill:url(#d);}.f{fill:url(#e);}.g{fill:url(#f);}.h{fill:url(#g);}</style><clipPath id="a"><rect class="a" width="1920" height="1080"/></clipPath><linearGradient id="b" x1="2737" y1="516.5" x2="946" y2="516.5" gradientUnits="userSpaceOnUse"><stop offset="0" stop-color="#5225f2"/><stop offset="1" stop-color="#883ed6"/></linearGradient><linearGradient id="c" x1="1727.42" y1="1229.78" x2="1462.42" y2="1229.78" gradientTransform="translate(153.6 -262.8)" xlink:href="#b"/><linearGradient id="d" x1="1618.42" y1="340.78" x2="1164.42" y2="340.78" gradientTransform="translate(153.6 -262.8)" xlink:href="#b"/><linearGradient id="e" x1="1045.52" y1="1217.81" x2="591.52" y2="1217.81" gradientTransform="translate(482.5 -250.8)" xlink:href="#b"/><linearGradient id="f" x1="260.85" y1="1052" x2="-154.85" y2="1052" xlink:href="#b"/><linearGradient id="g" x1="314.53" y1="195" x2="17.47" y2="195" gradientTransform="translate(194 -59.6) rotate(46.7)" xlink:href="#b"/></defs><title>project-image3</title><g class="b"><rect class="c" x="946" y="124" width="1791" height="785" rx="392.5"/><rect class="d" x="1616" y="955" width="265" height="24" rx="12"/><rect class="e" x="1318" y="66" width="454" height="24" rx="12"/><rect class="f" x="1074" y="955" width="454" height="24" rx="12"/><polygon class="g" points="260.9 974.9 223.7 1193.5 15.8 1270.5 -154.9 1129.1 -117.7 910.5 90.2 833.5 260.9 974.9"/><path class="h" d="M310.5,160.8,208.6,52.7,64.1,86.9,21.5,229.2,123.4,337.3l144.5-34.2ZM130.4,323.3l-93.3-95L72.7,100,201.6,66.7l93.3,95L259.3,290Z"/></g></svg>