<svg xmlns="http://www.w3.org/2000/svg" xmlns:xlink="http://www.w3.org/1999/xlink" viewBox="0 0 1920 1080"><defs><style>.a{fill:none;}.b{clip-path:url(#a);}.c{fill:url(#b);}</style><clipPath id="a"><rect class="a" width="1920" height="1080"/></clipPath><linearGradient id="b" x1="2263.81" y1="85.86" x2="861.66" y2="895.39" gradientUnits="userSpaceOnUse"><stop offset="0" stop-color="#29abe2"/><stop offset="1" stop-color="#662d91"/></linearGradient></defs><title>project-image</title><g class="b"><path class="c" d="M1647.5,1134.5c-110.6,0-217.8-16.2-318.6-48.1-97.4-30.8-184.5-74.8-258.9-130.8H903A11.6,11.6,0,0,1,891.5,944v-7A11.6,11.6,0,0,1,903,925.5h129.6l-1-.9c-9.1-7.8-17.9-15.9-26.3-24H948A11.6,11.6,0,0,1,936.5,889v-7A11.6,11.6,0,0,1,948,870.5h28l-.8-.8c-88.8-97.9-135.7-212.1-135.7-330.2a444.4,444.4,0,0,1,2.4-46H1221a12.5,12.5,0,0,0,12.5-12.5v-7a12.5,12.5,0,0,0-12.5-12.5H846.4c1.3-7.3,2.7-14.4,4.3-21.4l.2-.6H817A11.6,11.6,0,0,1,805.5,428v-7A11.6,11.6,0,0,1,817,409.5h41.9v-.4C891.8,301,965.2,201.9,1071.3,122.4l1.2-.9H778A11.6,11.6,0,0,1,766.5,110v-7A11.6,11.6,0,0,1,778,91.5h337.9C1188,45,1269.7,8.8,1358.6-16.3c92.2-26,189.4-39.2,288.9-39.2,109.1,0,214.9,15.7,314.6,46.8,96.2,30,182.6,72.9,256.8,127.5S2351.3,237.1,2392,308c42.1,73.3,63.5,151.2,63.5,231.5S2434.1,697.7,2392,771c-40.7,70.9-98.9,134.5-173.1,189.2s-160.6,97.5-256.8,127.5C1862.4,1118.8,1756.6,1134.5,1647.5,1134.5Z"/><path d="M1647.5-55c109,0,214.8,15.7,314.4,46.8a925.6,925.6,0,0,1,137.2,54.8,810.2,810.2,0,0,1,119.5,72.6,687,687,0,0,1,98.6,88,572.9,572.9,0,0,1,74.4,101,485.4,485.4,0,0,1,47,111.6,445,445,0,0,1,0,239.4,485.4,485.4,0,0,1-47,111.6,572.9,572.9,0,0,1-74.4,101,687,687,0,0,1-98.6,88,810.2,810.2,0,0,1-119.5,72.6,925.6,925.6,0,0,1-137.2,54.8c-99.6,31.1-205.4,46.8-314.4,46.8-110.6,0-217.7-16.2-318.5-48a926.7,926.7,0,0,1-138.5-56.3,807.5,807.5,0,0,1-120.2-74.5l-.3-.2H903a11,11,0,0,1-11-11v-7a11,11,0,0,1,11-11h130.9l-2-1.8c-9-7.8-17.9-15.8-26.2-23.9l-.3-.3H948a11,11,0,0,1-11-11v-7a11,11,0,0,1,11-11h29.1l-1.5-1.7C886.9,771.6,840,657.5,840,539.5c0-15.1.8-30.4,2.3-45.5H1221a13,13,0,0,0,13-13v-7a13,13,0,0,0-13-13H847c1.3-7,2.7-14,4.2-20.8l.3-1.2H817a11,11,0,0,1-11-11v-7a11,11,0,0,1,11-11h42.2l.2-.7c32.8-108,106.2-207.1,212.2-286.5l2.4-1.8H778a11,11,0,0,1-11-11v-7a11,11,0,0,1,11-11h337.9l.3-.2c72-46.3,153.6-82.6,242.6-107.7C1450.9-41.8,1548-55,1647.5-55m0-1C1443.8-56,1257.8-.5,1115.6,91H778a12,12,0,0,0-12,12v7a12,12,0,0,0,12,12h293C967.1,199.8,892,298.6,858.5,409H817a12,12,0,0,0-12,12v7a12,12,0,0,0,12,12h33.2c-1.6,7.3-3.1,14.6-4.4,22H1221a12,12,0,0,1,12,12v7a12,12,0,0,1-12,12H841.4a448.2,448.2,0,0,0-2.4,46.5c0,122.3,50,235.9,135.9,330.5H948a12,12,0,0,0-12,12v7a12,12,0,0,0,12,12h57c8.5,8.2,17.2,16.2,26.3,24H903a12,12,0,0,0-12,12v7a12,12,0,0,0,12,12h166.7c146.7,110.5,351.4,179,577.8,179C2094,1135,2456,868.4,2456,539.5S2094-56,1647.5-56Z"/></g></svg>